/vscmnt/brussel_pixiu_data/_data_brussel/112/vsc11236/PredSimResults/SUBJ11opt3D/weighted-LRposFixed/trackIG/worker_03.mot
version=1
nRows=10
nColumns=50
inDegrees=yes
endheader
                time	         pelvis_tilt	         pelvis_list	     pelvis_rotation	           pelvis_tx	           pelvis_ty	           pelvis_tz	       hip_flexion_r	     hip_adduction_r	      hip_rotation_r	        knee_angle_r	       ankle_angle_r	         mtp_angle_r	       hip_flexion_l	     hip_adduction_l	      hip_rotation_l	        knee_angle_l	       ankle_angle_l	         mtp_angle_l	    lumbar_extension	      lumbar_bending	     lumbar_rotation	 ercspn_r/activation	 intobl_r/activation	 extobl_r/activation	    abd_r/activation	    add_r/activation	hamstrings_r/activation	bifemsh_r/activation	glut_max_r/activation	iliopsoas_r/activation	rect_fem_r/activation	  vasti_r/activation	gastroc_r/activation	 soleus_r/activation	tib_ant_r/activation	 ercspn_l/activation	 intobl_l/activation	 extobl_l/activation	    abd_l/activation	    add_l/activation	hamstrings_l/activation	bifemsh_l/activation	glut_max_l/activation	iliopsoas_l/activation	rect_fem_l/activation	  vasti_l/activation	gastroc_l/activation	 soleus_l/activation	tib_ant_l/activation	
          0.00000000	         -2.81265908	         -1.37696081	          6.06757053	          0.00000000	          0.94160554	         -0.00487064	         31.11603795	         -1.47373357	         -4.12591622	         -9.64968372	          1.81600452	          0.22595110	        -13.58575077	         -3.28692757	         -1.22558865	        -11.81093016	         13.11156256	         28.88729154	        -14.27832052	         -2.37037837	         -3.29055704	          0.02934531	          0.26127890	          0.07019964	          0.00999999	          0.20558876	          0.04424812	          0.14098234	          0.03498510	          0.11197114	          0.04409628	          0.01842219	          0.00999999	          0.00999999	          0.40982147	          0.00999999	          0.00999999	          0.00999999	          0.04250506	          0.00999999	          0.02260054	          0.30893789	          0.02839416	          0.19639612	          0.00999999	          0.00999999	          0.17194069	          0.33833564	          0.01496605	
          0.01392599	         -2.96135423	         -1.43790443	          6.18744396	          0.01867153	          0.93926072	         -0.00360494	         30.99136485	         -1.27826346	         -4.34108061	        -10.86840167	          1.29656022	          0.23217457	        -14.12574729	         -3.55609877	         -1.56480940	        -12.56068459	         12.37814570	         30.72180624	        -13.81133438	         -1.84582447	         -3.49792941	          0.02381732	          0.21205985	          0.05697561	          0.00999999	          0.23791560	          0.04225935	          0.11442445	          0.09921872	          0.09087830	          0.03578953	          0.01495187	          0.01304798	          0.01232099	          0.43240149	          0.01523243	          0.00999999	          0.00999999	          0.03449807	          0.06071763	          0.03017728	          0.26250416	          0.02304534	          0.23093023	          0.00999999	          0.00999999	          0.14316943	          0.31878797	          0.01214678	
          0.02785198	         -3.08691469	         -1.50923121	          6.28765122	          0.03780715	          0.93718627	         -0.00228475	         30.74856739	         -1.10218797	         -4.45825908	        -12.19235636	          0.82106969	          0.20897451	        -14.52326367	         -3.84806279	         -1.91296543	        -13.63057426	         11.49656759	         32.65105742	        -13.30504022	         -1.30089569	         -3.70384498	          0.01933067	          0.17211255	          0.04624269	          0.05076910	          0.22450914	          0.05155589	          0.09286946	          0.12281851	          0.07375888	          0.02904759	          0.01213527	          0.01059004	          0.00999999	          0.50256982	          0.01236298	          0.00999999	          0.00999999	          0.02799941	          0.04927980	          0.02937937	          0.21305430	          0.01870412	          0.21664435	          0.00999999	          0.00999999	          0.11619954	          0.29354687	          0.00999999	
          0.04177797	         -3.19247189	         -1.57357870	          6.35736008	          0.05704355	          0.93560426	         -0.00087429	         30.49340799	         -0.94309382	         -4.65681149	        -13.48624940	          0.11041910	          0.18096346	        -14.67877812	         -4.14489914	         -2.27315536	        -15.13684942	         10.41525146	         34.68413647	        -12.80317910	         -0.76194694	         -3.89718064	          0.02831465	          0.13969043	          0.03753161	          0.08780825	          0.27000878	          0.05061604	          0.07537495	          0.12851856	          0.05986437	          0.02357568	          0.02557741	          0.00999999	          0.00999999	          0.56232108	          0.03839458	          0.00999999	          0.00999999	          0.02272495	          0.04680222	          0.03365290	          0.17291968	          0.01518069	          0.19711429	          0.00999999	          0.00999999	          0.09431016	          0.26475409	          0.00999999	
          0.05570396	         -3.27734869	         -1.63003961	          6.39732334	          0.07615353	          0.93464120	          0.00061766	         30.31714713	         -0.80549532	         -4.92587935	        -14.95734773	         -0.45509928	          0.13403667	        -14.52577537	         -4.44816960	         -2.64061587	        -17.16136327	          9.11139422	         36.77318604	        -12.32937022	         -0.23162675	         -4.07351622	          0.03307089	          0.11337590	          0.03046150	          0.11659485	          0.30071411	          0.05626648	          0.06117601	          0.12953746	          0.04858727	          0.01913455	          0.11069909	          0.00999999	          0.00999999	          0.59895007	          0.06820467	          0.00999999	          0.00999999	          0.01844408	          0.11242577	          0.03355093	          0.14034551	          0.01232099	          0.15998241	          0.00999999	          0.00999999	          0.07654426	          0.22058476	          0.00999999	
          0.06962995	         -3.34335243	         -1.67736035	          6.40584601	          0.09496932	          0.93444882	          0.00216069	         30.15377403	         -0.67766992	         -5.21363238	        -16.50867286	         -0.66946111	          0.07774540	        -14.00470898	         -4.75645770	         -3.01768456	        -19.77275066	          7.57048343	         38.76679550	        -11.89696625	          0.28881206	         -4.22677318	          0.02684108	          0.09201844	          0.02472324	          0.13314176	          0.31954136	          0.05786463	          0.04965183	          0.14449284	          0.03943452	          0.01553004	          0.16323995	          0.00999999	          0.00999999	          0.58967988	          0.09341871	          0.00999999	          0.00999999	          0.01496963	          0.17352780	          0.04385763	          0.11390758	          0.00999999	          0.12984533	          0.00999999	          0.00999999	          0.06212504	          0.17903157	          0.00999999	
          0.08355594	         -3.39259543	         -1.71476087	          6.38064430	          0.11331392	          0.93512057	          0.00371673	         29.94090161	         -0.54512809	         -5.46389793	        -18.04260163	         -0.38767938	          0.04106306	        -13.07011818	         -5.06988066	         -3.41072859	        -23.01134571	          5.81364461	         40.38831056	        -11.52084255	          0.80077985	         -4.35078950	          0.02178483	          0.07468424	          0.02006594	          0.14544692	          0.32626250	          0.06193006	          0.04029854	          0.13621428	          0.03200595	          0.01260453	          0.21139981	          0.00999999	          0.00999999	          0.52219212	          0.10661498	          0.00999999	          0.00999999	          0.01214969	          0.22123320	          0.05750602	          0.10198874	          0.00999999	          0.10538540	          0.00999999	          0.00999999	          0.05042209	          0.14530606	          0.00999999	
          0.09748193	         -3.42718215	         -1.73011162	          6.32070807	          0.13108156	          0.93666439	          0.00524023	         29.59122888	         -0.40134184	         -5.61843850	        -19.38007953	          0.32257802	          0.09901902	        -11.70706605	         -5.38364695	         -3.84913353	        -26.90236392	          4.06506711	         40.95272316	        -11.20905825	          1.29454156	         -4.44278306	          0.01768106	          0.06061541	          0.01628597	          0.14848002	          0.30934407	          0.06343553	          0.03270721	          0.12544949	          0.02597675	          0.01023012	          0.26783970	          0.00999999	          0.00999999	          0.42828851	          0.10279034	          0.00999999	          0.00999999	          0.00999999	          0.27101662	          0.06282877	          0.08277637	          0.00999999	          0.08553316	          0.00999999	          0.00999999	          0.04092370	          0.11793367	          0.00999999	
          0.11140792	         -3.44990342	         -1.70274412	          6.21794955	          0.14822479	          0.93908638	          0.00668454	         28.99958056	         -0.25432734	         -5.66220773	        -20.28929762	          1.21504086	          0.30986186	         -9.93933524	         -5.68436534	         -4.32549468	        -31.35612451	          2.23852446	         40.36165441	        -10.96621657	          1.75212663	         -4.49529950	          0.01435034	          0.04919684	          0.01321806	          0.13714557	          0.28872882	          0.06843764	          0.02654591	          0.10181764	          0.02108332	          0.00999999	          0.29271086	          0.00999999	          0.00999999	          0.34975698	          0.08535915	          0.00999999	          0.03043917	          0.00999999	          0.31028848	          0.05310883	          0.07245774	          0.00999999	          0.06942064	          0.00999999	          0.00999999	          0.03321460	          0.09571763	          0.00999999	
          0.12533391	         -3.46286824	         -1.61091183	          6.06365155	          0.16472732	          0.94229098	          0.00802997	         28.13405538	         -0.12731880	         -5.60697071	        -20.66863941	          2.03291337	          0.62086185	         -7.83560551	         -5.95230586	         -4.80927292	        -36.15581247	          0.13173662	         38.81555940	        -10.79770437	          2.15109441	         -4.50689314	          0.01164706	          0.03992926	          0.01072808	          0.11542330	          0.26601929	          0.06927221	          0.02154526	          0.08263749	          0.01711169	          0.00999999	          0.28957615	          0.00999999	          0.00999999	          0.29436583	          0.06983830	          0.01191543	          0.06006326	          0.00999999	          0.32126692	          0.04310433	          0.07820061	          0.00999999	          0.05634336	          0.00999999	          0.00999999	          0.02695772	          0.07768658	          0.00999999	
